<?xml version="1.0" encoding="UTF-8" standalone="no"?>
<!-- Created with Inkscape (http://www.inkscape.org/) -->

<svg
   width="100"
   height="100"
   viewBox="0 0 100 100"
   version="1.1"
   id="svg1"
   xml:space="preserve"
   inkscape:version="1.4.3 (fcd0343856, 2026-01-01)"
   sodipodi:docname="logo.svg"
   inkscape:export-filename="../icon.png"
   inkscape:export-xdpi="96"
   inkscape:export-ydpi="96"
   xmlns:inkscape="http://www.inkscape.org/namespaces/inkscape"
   xmlns:sodipodi="http://sodipodi.sourceforge.net/DTD/sodipodi-0.dtd"
   xmlns:xlink="http://www.w3.org/1999/xlink"
   xmlns="http://www.w3.org/2000/svg"
   xmlns:svg="http://www.w3.org/2000/svg"><sodipodi:namedview
     id="namedview1"
     pagecolor="#ffffff"
     bordercolor="#000000"
     borderopacity="0.25"
     inkscape:showpageshadow="false"
     inkscape:pageopacity="0.0"
     inkscape:pagecheckerboard="0"
     inkscape:deskcolor="#d1d1d1"
     inkscape:document-units="px"
     showgrid="false"
     showborder="false"
     borderlayer="false"
     showguides="true"
     inkscape:zoom="0.4963834"
     inkscape:cx="-745.39156"
     inkscape:cy="62.451726"
     inkscape:window-width="1862"
     inkscape:window-height="1008"
     inkscape:window-x="0"
     inkscape:window-y="0"
     inkscape:window-maximized="1"
     inkscape:current-layer="layer1"><sodipodi:guide
       position="-838.06186,259.15117"
       orientation="1,0"
       id="guide77"
       inkscape:locked="false" /></sodipodi:namedview><defs
     id="defs1"><linearGradient
       id="linearGradient3"
       inkscape:collect="always"><stop
         style="stop-color:#ffffff;stop-opacity:1;"
         offset="0"
         id="stop3" /><stop
         style="stop-color:#407dc9;stop-opacity:1;"
         offset="1"
         id="stop4" /></linearGradient><linearGradient
       id="swatch31"><stop
         style="stop-color:#ff0000;stop-opacity:1;"
         offset="0"
         id="stop31" /></linearGradient><clipPath
       clipPathUnits="userSpaceOnUse"
       id="clipPath5"><rect
         style="fill:#000000;stroke:#000000;stroke-width:0;stroke-linejoin:bevel;paint-order:stroke markers fill;stop-color:#000000"
         id="rect5-4"
         width="20"
         height="200"
         x="530"
         y="595" /></clipPath><linearGradient
       id="swatch7"
       inkscape:swatch="solid"><stop
         style="stop-color:#5555ff;stop-opacity:1;"
         offset="0"
         id="stop7" /></linearGradient><inkscape:path-effect
       effect="fill_between_many"
       method="originald"
       linkedpaths="#path2,0,1|"
       id="path-effect3" /><radialGradient
       inkscape:collect="always"
       xlink:href="#linearGradient3"
       id="radialGradient4"
       cx="50"
       cy="50"
       fx="50"
       fy="50"
       r="48.489071"
       gradientUnits="userSpaceOnUse" /></defs><g
     inkscape:label="Layer 1"
     inkscape:groupmode="layer"
     id="layer1"><circle
       style="mix-blend-mode:normal;fill:url(#radialGradient4);stroke:#666666;stroke-width:0;stroke-linejoin:bevel;stroke-miterlimit:0;fill-opacity:1"
       id="path1"
       cx="50"
       cy="50"
       r="48.489071" /><path
       d="m 48.975578,11.119083 c -0.0057,-0.0017 -0.462886,-0.126234 -0.96053,-0.488499 -0.596459,-0.435456 -1.52037,-0.543357 -2.129575,-0.109791 -0.611091,-0.431781 -1.535037,-0.320176 -2.129576,0.117092 -0.497644,0.365917 -0.958703,0.490341 -0.964185,0.492159 -0.104284,0.02745 -0.188457,0.104283 -0.226801,0.20498 -0.03838,0.100623 -0.02559,0.212217 0.03472,0.301885 0.05666,0.08232 0.109767,0.212218 0.15733,0.365914 -0.402486,-0.03293 -0.810477,0.199409 -0.964187,0.594622 -0.186627,0.486669 0.05129,1.035567 0.530576,1.225808 0.246982,0.09696 0.519597,0.07684 0.750109,-0.03659 0.0329,0.30006 0.05848,0.622053 0.08418,0.955048 -0.444588,-0.111607 -0.938554,0.133539 -1.105068,0.570844 -0.186628,0.486662 0.05129,1.035562 0.528736,1.223981 0.223214,0.08782 0.461059,0.07684 0.67694,-0.0073 0.01143,0.30371 0.02193,0.607415 0.02936,0.907462 -0.450071,-0.131725 -0.964163,0.107929 -1.139826,0.561674 -0.186605,0.486661 0.05311,1.033736 0.530575,1.22215 0.206742,0.08233 0.428117,0.07684 0.633032,0.01097 1.1e-5,0.175634 -0.0023,0.345787 -0.0023,0.510446 1.2e-5,0.01832 0.0091,0.03476 0.0091,0.05307 0.0034,0.02195 0.0057,0.04209 0.01291,0.06402 0.0069,0.02193 0.0201,0.03843 0.03118,0.05672 0.01143,0.01834 0.02011,0.03473 0.0329,0.05123 0.01279,0.0165 0.03301,0.02556 0.04957,0.03834 0.01656,0.01278 0.03301,0.02556 0.05311,0.03476 0.02022,0.009 0.03838,0.01281 0.06225,0.01829 0.01816,0.0035 0.03461,0.01289 0.05311,0.01646 0.06408,0.0055 0.131744,0.0439 0.197594,0.146372 0.223213,0.347615 0.268948,0.484841 0.268948,0.53972 l -0.788718,29.476254 c -0.223202,0.02195 -0.453726,0.04025 -0.69156,0.05856 -0.753788,0.05855 -1.531335,0.11892 -2.17716,0.274464 -1.74726,0.426263 -3.068141,1.516718 -3.820136,3.150508 -0.662308,1.43804 -0.70803,3.024298 -0.131744,4.584901 0.148203,0.400669 0.314682,0.797691 0.47753,1.194728 0.164663,0.398836 0.332969,0.797673 0.481185,1.202033 0.300051,0.815981 0.312866,1.567907 0.04204,2.233881 -0.329475,0.815963 -0.966128,1.456276 -1.480244,1.930137 -1.125193,1.026398 -1.994244,2.074745 -2.656517,3.201732 -0.812316,1.37947 -1.317294,2.857748 -1.498416,4.396478 -0.252489,2.147888 0.06773,4.173206 0.951359,6.019279 0.859878,1.800265 2.206435,3.322462 4.006753,4.530005 1.710653,1.143487 3.660944,1.856986 5.966217,2.182641 1.187399,0.159151 2.945603,0.157326 3.018774,0.157324 0.07676,0 1.886247,-0.0055 3.113898,-0.175636 2.374753,-0.354977 4.385458,-1.125161 6.152799,-2.354627 0.649515,-0.451907 1.240422,-0.947698 1.776525,-1.483792 0.989806,-0.989802 1.780192,-2.116825 2.358328,-3.36822 0.912936,-1.977732 1.247779,-4.138453 0.995278,-6.429104 -0.181111,-1.641113 -0.695238,-3.220029 -1.527668,-4.68916 -0.67694,-1.200187 -1.567921,-2.318037 -2.724229,-3.415799 -0.532413,-0.503146 -1.185583,-1.192884 -1.524013,-2.065559 -0.126239,-0.323838 -0.182962,-0.665958 -0.188456,-1.022739 -0.0023,-0.04209 -0.0091,-0.08234 -0.0091,-0.126245 0,-0.01096 0.0034,-0.02195 0.0034,-0.03293 0.0128,-0.393355 0.09149,-0.805009 0.245156,-1.236774 0.04204,-0.122589 0.09515,-0.241503 0.139043,-0.362254 l 0.137308,-0.353099 c 0.0091,-0.02745 0.02193,-0.05488 0.03118,-0.08599 0.06225,-0.161 0.122584,-0.323831 0.188457,-0.484836 0.171961,-0.428118 0.343924,-0.852557 0.49761,-1.28433 0.01462,-0.0439 0.02011,-0.08964 0.01828,-0.131733 0.148193,-0.397012 0.300052,-0.790388 0.433611,-1.194713 0.267088,-0.815963 0.257927,-1.644771 -0.02375,-2.464413 -0.294568,-0.861734 -0.97152,-1.578933 -1.805811,-1.915551 -0.05483,-0.02196 -0.115286,-0.02744 -0.173813,-0.02013 -0.128078,0.01829 -0.236006,0.111607 -0.272603,0.23967 -0.318349,1.159952 -1.379488,1.972276 -2.585187,1.974125 -0.715364,0.0018 -1.386797,-0.274416 -1.891798,-0.779411 C 48.695277,51.64233 48.439132,51.056856 48.3861,50.433 L 47.728921,20.755829 c 0.0023,-0.122578 0.128065,-0.40982 0.2415,-0.592775 0.03849,-0.06034 0.111595,-0.09328 0.170145,-0.09697 0.01644,-0.0019 0.0329,-0.01108 0.04763,-0.01465 0.02193,-0.0036 0.04398,-0.01097 0.06408,-0.02012 0.02011,-0.0091 0.03655,-0.02198 0.05311,-0.03475 0.0128,-0.009 0.02924,-0.01468 0.04021,-0.02563 0.0034,-0.0036 0.0057,-0.0092 0.0091,-0.01281 0.01474,-0.01465 0.02376,-0.03476 0.0329,-0.05122 0.01143,-0.01831 0.02193,-0.03653 0.03118,-0.05672 0.0057,-0.02008 0.0091,-0.04208 0.0128,-0.06402 0.0023,-0.01642 0.01143,-0.03287 0.01143,-0.05123 -0.0023,-0.166503 -0.0023,-0.338475 0,-0.51594 0.208559,0.06954 0.428117,0.07685 0.634848,-0.0055 0.120768,-0.04757 0.223202,-0.117097 0.314684,-0.208574 0.265293,-0.265289 0.351256,-0.665946 0.215891,-1.017239 -0.09149,-0.23784 -0.26712,-0.424453 -0.501323,-0.526931 -0.203087,-0.08964 -0.426289,-0.08965 -0.638526,-0.02744 0.0091,-0.301882 0.01828,-0.60742 0.0329,-0.911123 0.219547,0.08417 0.457403,0.09148 0.67695,0.0036 0.120745,-0.04757 0.226869,-0.117098 0.318339,-0.208575 0.265281,-0.265283 0.351245,-0.665937 0.214052,-1.015406 -0.08966,-0.236013 -0.26712,-0.424455 -0.497644,-0.52696 -0.193927,-0.08781 -0.406152,-0.08782 -0.60924,-0.03477 0.02753,-0.338467 0.05666,-0.66413 0.08784,-0.969666 0.01291,0.0054 0.02193,0.01825 0.03667,0.02553 0.228696,0.100633 0.483012,0.106124 0.715364,0.01281 0.120756,-0.04757 0.226857,-0.117097 0.318338,-0.208576 0.265293,-0.265287 0.349429,-0.664112 0.214053,-1.015405 -0.09149,-0.23784 -0.268948,-0.426285 -0.501322,-0.526931 -0.150009,-0.06589 -0.309189,-0.07502 -0.466531,-0.05671 0.05129,-0.15734 0.102458,-0.289066 0.160985,-0.373232 0.06031,-0.08965 0.07322,-0.201252 0.03473,-0.301891 -0.03838,-0.100633 -0.124389,-0.179316 -0.228594,-0.206829 z"
       id="path3"
       style="display:inline;fill:#2c5aa0;stroke:#f9f9f9;stroke-width:6.17725264;stroke-dasharray:none;stroke-opacity:1;paint-order:stroke fill markers;stroke-linecap:square;stroke-linejoin:miter;stroke-miterlimit:0"
       inkscape:original-d="M 0,0"
       inkscape:path-effect="#path-effect3"
       transform="matrix(1.0606657,0,0,1.0606657,1.4799028,-1.1347449)" /><path
       d="m 48.975578,11.119083 c -0.0057,-0.0017 -0.462886,-0.126234 -0.96053,-0.488499 -0.596459,-0.435456 -1.52037,-0.543357 -2.129575,-0.109791 -0.611091,-0.431781 -1.535037,-0.320176 -2.129576,0.117092 -0.497644,0.365917 -0.958703,0.490341 -0.964185,0.492159 -0.104284,0.02745 -0.188457,0.104283 -0.226801,0.20498 -0.03838,0.100623 -0.02559,0.212217 0.03472,0.301885 0.05666,0.08232 0.109767,0.212218 0.15733,0.365914 -0.402486,-0.03293 -0.810477,0.199409 -0.964187,0.594622 -0.186627,0.486669 0.05129,1.035567 0.530576,1.225808 0.246982,0.09696 0.519597,0.07684 0.750109,-0.03659 0.0329,0.30006 0.05848,0.622053 0.08418,0.955048 -0.444588,-0.111607 -0.938554,0.133539 -1.105068,0.570844 -0.186628,0.486662 0.05129,1.035562 0.528736,1.223981 0.223214,0.08782 0.461059,0.07684 0.67694,-0.0073 0.01143,0.30371 0.02193,0.607415 0.02936,0.907462 -0.450071,-0.131725 -0.964163,0.107929 -1.139826,0.561674 -0.186605,0.486661 0.05311,1.033736 0.530575,1.22215 0.206742,0.08233 0.428117,0.07684 0.633032,0.01097 1.1e-5,0.175634 -0.0023,0.345787 -0.0023,0.510446 1.2e-5,0.01832 0.0091,0.03476 0.0091,0.05307 0.0034,0.02195 0.0057,0.04209 0.01291,0.06402 0.0069,0.02193 0.0201,0.03843 0.03118,0.05672 0.01143,0.01834 0.02011,0.03473 0.0329,0.05123 0.01279,0.0165 0.03301,0.02556 0.04957,0.03834 0.01656,0.01278 0.03301,0.02556 0.05311,0.03476 0.02022,0.009 0.03838,0.01281 0.06225,0.01829 0.01816,0.0035 0.03461,0.01289 0.05311,0.01646 0.06408,0.0055 0.131744,0.0439 0.197594,0.146372 0.223213,0.347615 0.268948,0.484841 0.268948,0.53972 l -0.788718,29.476254 c -0.223202,0.02195 -0.453726,0.04025 -0.69156,0.05856 -0.753788,0.05855 -1.531335,0.11892 -2.17716,0.274464 -1.74726,0.426263 -3.068141,1.516718 -3.820136,3.150508 -0.662308,1.43804 -0.70803,3.024298 -0.131744,4.584901 0.148203,0.400669 0.314682,0.797691 0.47753,1.194728 0.164663,0.398836 0.332969,0.797673 0.481185,1.202033 0.300051,0.815981 0.312866,1.567907 0.04204,2.233881 -0.329475,0.815963 -0.966128,1.456276 -1.480244,1.930137 -1.125193,1.026398 -1.994244,2.074745 -2.656517,3.201732 -0.812316,1.37947 -1.317294,2.857748 -1.498416,4.396478 -0.252489,2.147888 0.06773,4.173206 0.951359,6.019279 0.859878,1.800265 2.206435,3.322462 4.006753,4.530005 1.710653,1.143487 3.660944,1.856986 5.966217,2.182641 1.187399,0.159151 2.945603,0.157326 3.018774,0.157324 0.07676,0 1.886247,-0.0055 3.113898,-0.175636 2.374753,-0.354977 4.385458,-1.125161 6.152799,-2.354627 0.649515,-0.451907 1.240422,-0.947698 1.776525,-1.483792 0.989806,-0.989802 1.780192,-2.116825 2.358328,-3.36822 0.912936,-1.977732 1.247779,-4.138453 0.995278,-6.429104 -0.181111,-1.641113 -0.695238,-3.220029 -1.527668,-4.68916 -0.67694,-1.200187 -1.567921,-2.318037 -2.724229,-3.415799 -0.532413,-0.503146 -1.185583,-1.192884 -1.524013,-2.065559 -0.126239,-0.323838 -0.182962,-0.665958 -0.188456,-1.022739 -0.0023,-0.04209 -0.0091,-0.08234 -0.0091,-0.126245 0,-0.01096 0.0034,-0.02195 0.0034,-0.03293 0.0128,-0.393355 0.09149,-0.805009 0.245156,-1.236774 0.04204,-0.122589 0.09515,-0.241503 0.139043,-0.362254 l 0.137308,-0.353099 c 0.0091,-0.02745 0.02193,-0.05488 0.03118,-0.08599 0.06225,-0.161 0.122584,-0.323831 0.188457,-0.484836 0.171961,-0.428118 0.343924,-0.852557 0.49761,-1.28433 0.01462,-0.0439 0.02011,-0.08964 0.01828,-0.131733 0.148193,-0.397012 0.300052,-0.790388 0.433611,-1.194713 0.267088,-0.815963 0.257927,-1.644771 -0.02375,-2.464413 -0.294568,-0.861734 -0.97152,-1.578933 -1.805811,-1.915551 -0.05483,-0.02196 -0.115286,-0.02744 -0.173813,-0.02013 -0.128078,0.01829 -0.236006,0.111607 -0.272603,0.23967 -0.318349,1.159952 -1.379488,1.972276 -2.585187,1.974125 -0.715364,0.0018 -1.386797,-0.274416 -1.891798,-0.779411 C 48.695277,51.64233 48.439132,51.056856 48.3861,50.433 L 47.728921,20.755829 c 0.0023,-0.122578 0.128065,-0.40982 0.2415,-0.592775 0.03849,-0.06034 0.111595,-0.09328 0.170145,-0.09697 0.01644,-0.0019 0.0329,-0.01108 0.04763,-0.01465 0.02193,-0.0036 0.04398,-0.01097 0.06408,-0.02012 0.02011,-0.0091 0.03655,-0.02198 0.05311,-0.03475 0.0128,-0.009 0.02924,-0.01468 0.04021,-0.02563 0.0034,-0.0036 0.0057,-0.0092 0.0091,-0.01281 0.01474,-0.01465 0.02376,-0.03476 0.0329,-0.05122 0.01143,-0.01831 0.02193,-0.03653 0.03118,-0.05672 0.0057,-0.02008 0.0091,-0.04208 0.0128,-0.06402 0.0023,-0.01642 0.01143,-0.03287 0.01143,-0.05123 -0.0023,-0.166503 -0.0023,-0.338475 0,-0.51594 0.208559,0.06954 0.428117,0.07685 0.634848,-0.0055 0.120768,-0.04757 0.223202,-0.117097 0.314684,-0.208574 0.265293,-0.265289 0.351256,-0.665946 0.215891,-1.017239 -0.09149,-0.23784 -0.26712,-0.424453 -0.501323,-0.526931 -0.203087,-0.08964 -0.426289,-0.08965 -0.638526,-0.02744 0.0091,-0.301882 0.01828,-0.60742 0.0329,-0.911123 0.219547,0.08417 0.457403,0.09148 0.67695,0.0036 0.120745,-0.04757 0.226869,-0.117098 0.318339,-0.208575 0.265281,-0.265283 0.351245,-0.665937 0.214052,-1.015406 -0.08966,-0.236013 -0.26712,-0.424455 -0.497644,-0.52696 -0.193927,-0.08781 -0.406152,-0.08782 -0.60924,-0.03477 0.02753,-0.338467 0.05666,-0.66413 0.08784,-0.969666 0.01291,0.0054 0.02193,0.01825 0.03667,0.02553 0.228696,0.100633 0.483012,0.106124 0.715364,0.01281 0.120756,-0.04757 0.226857,-0.117097 0.318338,-0.208576 0.265293,-0.265287 0.349429,-0.664112 0.214053,-1.015405 -0.09149,-0.23784 -0.268948,-0.426285 -0.501322,-0.526931 -0.150009,-0.06589 -0.309189,-0.07502 -0.466531,-0.05671 0.05129,-0.15734 0.102458,-0.289066 0.160985,-0.373232 0.06031,-0.08965 0.07322,-0.201252 0.03473,-0.301891 -0.03838,-0.100633 -0.124389,-0.179316 -0.228594,-0.206829 z m -6.56264,1.714281 c 0.01656,-0.03838 0.03655,-0.07315 0.06591,-0.102469 0.07676,-0.07682 0.19026,-0.102458 0.289075,-0.06221 0.14272,0.05488 0.212145,0.223283 0.155502,0.371413 -0.05483,0.142705 -0.217799,0.213968 -0.353096,0.16283 -0.144537,-0.0567 -0.212145,-0.223282 -0.157353,-0.369576 z m 0.259821,2.711424 c 0.01656,-0.03838 0.03473,-0.07138 0.06408,-0.100634 0.07676,-0.07683 0.188444,-0.100622 0.287235,-0.06038 0.144538,0.0567 0.212146,0.223283 0.155503,0.371407 -0.01474,0.03652 -0.03667,0.06954 -0.06591,0.0988 -0.07676,0.07682 -0.190272,0.102448 -0.289074,0.06221 -0.140848,-0.05673 -0.210318,-0.221454 -0.151836,-0.371412 z m 6.416266,-0.0091 c 0.05483,0.142718 -0.01291,0.312855 -0.157353,0.369575 -0.06591,0.02558 -0.139044,0.02561 -0.204893,-0.0036 -0.06773,-0.03111 -0.118905,-0.086 -0.144457,-0.155591 -0.04203,-0.107916 -0.01462,-0.230532 0.06591,-0.311024 0.02559,-0.02561 0.05666,-0.04571 0.08966,-0.06039 0.06773,-0.02744 0.139044,-0.02561 0.204903,0.0036 0.06591,0.02926 0.117067,0.08417 0.146285,0.157422 z m 0.263453,-2.715084 c 0.05494,0.146328 -0.01279,0.31651 -0.157341,0.373237 -0.06591,0.02557 -0.139054,0.02562 -0.203065,-0.0018 -0.06773,-0.03109 -0.118905,-0.08599 -0.148112,-0.159247 -0.04204,-0.107928 -0.01645,-0.228701 0.06408,-0.309199 0.02558,-0.02561 0.05666,-0.04572 0.09332,-0.06037 0.06773,-0.02744 0.139055,-0.02562 0.203065,0.0018 0.06773,0.0274 0.120768,0.08415 0.148146,0.155566 z m -6.586569,5.408342 c 0.01656,-0.03831 0.03655,-0.07315 0.06408,-0.100633 0.07676,-0.07684 0.188445,-0.100623 0.289075,-0.06221 0.140859,0.05673 0.212145,0.223284 0.155502,0.371408 -0.01656,0.03837 -0.03655,0.07315 -0.06591,0.102468 -0.07676,0.07684 -0.188433,0.100634 -0.287236,0.06038 -0.142721,-0.05488 -0.212156,-0.223283 -0.155513,-0.371405 z m 8.271842,35.301367 c 1.370304,-0.0018 2.588864,-0.843437 3.095589,-2.085692 0.510449,0.301883 0.923911,0.799503 1.116023,1.361184 0.236006,0.682429 0.241534,1.368528 0.02193,2.04176 -0.206732,0.620222 -0.444588,1.245939 -0.673273,1.851506 -0.155514,0.407991 -0.311016,0.815973 -0.455577,1.220338 -0.05848,0.150027 -0.117089,0.296392 -0.171984,0.446416 l -0.142698,0.365911 c -0.137227,0.386035 -0.210421,0.759292 -0.246972,1.12516 -0.06591,0.614734 -0.0091,1.205675 0.204903,1.752681 0.387889,0.995302 1.105069,1.756386 1.685022,2.30707 1.11054,1.052005 1.961303,2.118645 2.603461,3.262099 0.786708,1.390459 1.273353,2.883415 1.445338,4.434836 0.239661,2.168029 -0.07676,4.21166 -0.940383,6.077826 -0.839741,1.816753 -2.157023,3.360916 -3.911606,4.584879 -1.681377,1.1691 -3.600577,1.902742 -5.869253,2.243058 -1.180054,0.166506 -3.002292,0.170159 -3.020601,0.170113 -0.01828,0 -1.787479,0.0018 -2.927294,-0.150067 -2.202792,-0.311042 -4.06343,-0.989802 -5.688142,-2.076556 -1.697826,-1.137965 -2.971224,-2.57238 -3.778034,-4.264695 -0.82881,-1.732603 -1.126988,-3.637156 -0.889199,-5.656995 0.170158,-1.44721 0.643998,-2.839528 1.410579,-4.136674 0.627549,-1.070296 1.458152,-2.069223 2.530279,-3.049868 0.567138,-0.515913 1.266076,-1.229482 1.648425,-2.168025 0.334809,-0.825141 0.325647,-1.738066 -0.03473,-2.713256 -0.151847,-0.415317 -0.322017,-0.823323 -0.490301,-1.229448 -0.160996,-0.387869 -0.322016,-0.775747 -0.468368,-1.167261 -0.521426,-1.410593 -0.483036,-2.784588 0.111595,-4.078126 0.665963,-1.445353 1.833213,-2.407685 3.375537,-2.782758 0.59278,-0.146364 1.344729,-0.203037 2.07107,-0.259803 0.214064,-0.01647 0.420806,-0.03293 0.623895,-0.05306 l -0.22135,8.282421 c -0.0023,0.08964 0.0329,0.175639 0.09332,0.239676 0.06408,0.06403 0.148192,0.100633 0.237845,0.0988 l 4.86662,-0.0073 c 0.08784,-6e-6 0.171985,-0.03659 0.232363,-0.09696 l 0.0034,-0.0036 c 0.06031,-0.06406 0.09515,-0.150028 0.09515,-0.237844 l -0.153698,-6.930397 c 0.08053,0.102384 0.155526,0.210387 0.248834,0.303695 0.629309,0.633138 1.467313,0.980656 2.361972,0.978795 z M 47.715259,50.12002 c -0.0057,0.02378 -0.01462,0.04757 -0.01462,0.07317 0,0.07684 0.01644,0.151861 0.02193,0.22686 l 0.184766,8.436109 -4.187876,0.0055 1.011669,-37.774819 2.34003,-0.0018 z M 47.407544,19.80766 c -0.02559,0.04018 -0.193927,0.318343 -0.285408,0.614733 l -2.45528,0.0036 c -0.07322,-0.197584 -0.195766,-0.404325 -0.327499,-0.609235 -0.08418,-0.139004 -0.217696,-0.247013 -0.367728,-0.316521 0.0034,-1.269742 -0.01827,-6.161993 -0.638537,-7.861602 0.217719,-0.09331 0.512276,-0.241509 0.815993,-0.464714 0.433612,-0.320179 1.15993,-0.384195 1.485612,0.0073 0.0057,0.0091 0.01656,0.01278 0.02375,0.02009 0.0069,0.0073 0.01143,0.01834 0.02011,0.02382 0.01142,0.0073 0.02205,0.01085 0.03106,0.01648 0.01839,0.01097 0.03655,0.02197 0.05666,0.03111 0.02022,0.009 0.04021,0.01462 0.06225,0.01829 0.02193,0.0036 0.04021,0.0073 0.06031,0.0055 0.02181,2.5e-5 0.04386,-0.0035 0.06408,-0.0055 0.01816,-0.0035 0.03838,-0.0091 0.05677,-0.01651 0.02193,-0.0073 0.04204,-0.02019 0.06225,-0.03293 0.0091,-0.0054 0.0201,-0.0091 0.02924,-0.01468 0.0091,-0.0055 0.0128,-0.01657 0.01999,-0.02387 0.0069,-0.0073 0.01828,-0.01097 0.02387,-0.02004 0.325671,-0.391523 1.050195,-0.329346 1.483796,-0.01283 0.3019,0.221357 0.592757,0.369556 0.810511,0.462892 -0.625745,1.701486 -0.664147,6.595559 -0.662331,7.863479 -0.151859,0.06403 -0.28358,0.170157 -0.369566,0.311032 z m 1.575243,-1.586248 c 0.05299,0.140884 -0.01462,0.314687 -0.15917,0.371407 -0.06591,0.02557 -0.139054,0.02562 -0.203076,-0.0018 -0.06773,-0.03109 -0.118894,-0.086 -0.146285,-0.15742 -0.04204,-0.107918 -0.01462,-0.230534 0.06591,-0.311027 0.02559,-0.02561 0.05666,-0.04571 0.09332,-0.06037 0.06591,-0.02557 0.139054,-0.02562 0.204903,0.0036 0.06773,0.02741 0.118929,0.08231 0.144457,0.155591 z"
       id="path2"
       style="display:none;fill:#f9f9f9;stroke-width:0;stroke-dasharray:none"
       transform="matrix(1.0606657,0,0,1.0606657,1.4799028,-1.1347449)" /></g></svg>
